# Blender 4.2.1 LTS
# www.blender.org
mtllib wall.mtl
o Stanza.001
v -2.650409 0.000000 1.000000
v -2.650409 2.500000 1.000000
v -2.650409 0.000000 -3.020513
v -2.650409 2.500000 -3.020513
v -2.587979 0.062430 -3.020513
v -2.587979 0.062430 0.937570
v -2.587979 2.500000 0.937570
v -2.587979 2.500000 -3.020513
v 3.585366 2.500000 0.937570
v 3.585366 0.062430 0.937570
v 5.327087 0.062430 0.937570
v 5.327087 2.500000 0.937570
v 5.326549 2.500000 1.000000
v 5.326549 0.000000 1.000000
v -2.650409 0.000000 -3.098517
v -2.650409 2.500000 -3.098517
v -2.650409 0.000000 0.921996
v -2.650409 2.500000 0.921996
v -2.587979 0.062430 0.921996
v -2.587979 0.062430 -3.036087
v -2.587979 2.500000 -3.036087
v -2.587979 2.500000 0.921996
v 3.585366 2.500000 -3.036087
v 3.585366 0.062430 -3.036087
v 5.327087 2.500000 -3.036087
v 5.327087 0.062430 -3.036087
v 5.326549 2.500000 -3.098517
v 5.326549 0.000000 -3.098517
vn -0.0000 -0.0000 1.0000
vn -0.0000 -0.0000 -1.0000
vn 1.0000 -0.0000 -0.0000
vn -0.0000 1.0000 -0.0000
vn 1.0000 -0.0000 0.0086
vn -1.0000 -0.0000 -0.0000
vn 1.0000 -0.0000 -0.0086
vt 0.672188 0.002698
vt 0.672187 0.501170
vt 0.515965 0.501170
vt 0.515965 0.002698
vt 0.839202 0.111536
vt 0.839202 0.002698
vt 0.991523 0.002698
vt 0.991523 0.111536
vt 0.991523 0.497302
vt 0.839202 0.497302
vt 0.316638 0.506599
vt 0.316638 0.753935
vt 0.164316 0.753935
vt 0.164316 0.506599
vt 0.002698 0.501203
vt 0.002698 0.002732
vt 0.006599 0.002698
vt 0.006599 0.111536
vt 0.006599 0.497302
vt 0.253936 0.497302
vt 0.253936 0.501203
vt 0.498346 0.506599
vt 0.502247 0.506599
vt 0.502247 0.658920
vt 0.498346 0.662822
vt 0.489048 0.658920
vt 0.489048 0.506599
vt 0.492949 0.506599
vt 0.492949 0.662822
vt 0.672188 0.757802
vt 0.515965 0.757802
vt 0.515965 0.506566
vt 0.672188 0.506566
vt 0.833806 0.002698
vt 0.677584 0.002698
vt 0.677584 0.501170
vt 0.833806 0.501170
vt 0.839202 0.611536
vt 0.839202 0.997302
vt 0.991523 0.997302
vt 0.991523 0.611536
vt 0.991523 0.502698
vt 0.839202 0.502698
vt 0.474355 0.506599
vt 0.322034 0.506599
vt 0.322034 0.753935
vt 0.474355 0.753935
vt 0.510569 0.002698
vt 0.506668 0.006599
vt 0.506668 0.392365
vt 0.506668 0.501203
vt 0.510569 0.501170
vt 0.259332 0.002698
vt 0.259332 0.006599
vt 0.677584 0.506566
vt 0.677584 0.662788
vt 0.681485 0.658887
vt 0.681485 0.506566
vt 0.479751 0.658920
vt 0.483652 0.662822
vt 0.483652 0.506599
vt 0.479751 0.506599
vt 0.158920 0.757836
vt 0.158920 0.506599
vt 0.002698 0.506599
vt 0.002698 0.757836
s 0
usemtl MAT_Room
f 1/1/1 14/2/1 13/3/1 2/4/1
f 9/5/2 12/6/2 11/7/2 10/8/2 6/9/2 7/10/2
f 6/11/3 5/12/3 8/13/3 7/14/3
f 2/15/4 13/16/4 12/17/4 9/18/4 7/19/4
f 2/15/4 7/19/4 8/20/4 4/21/4
f 4/22/2 8/23/2 5/24/2 3/25/2
f 11/26/5 12/27/5 13/28/5 14/29/5
f 1/30/6 2/31/6 4/32/6 3/33/6
f 15/34/2 16/35/2 27/36/2 28/37/2
f 23/38/1 21/39/1 20/40/1 24/41/1 26/42/1 25/43/1
f 20/44/3 21/45/3 22/46/3 19/47/3
f 16/48/4 21/49/4 23/50/4 25/51/4 27/52/4
f 16/48/4 18/53/4 22/54/4 21/49/4
f 18/55/1 17/56/1 19/57/1 22/58/1
f 26/59/7 28/60/7 27/61/7 25/62/7
f 15/63/6 17/64/6 18/65/6 16/66/6
